<?xml version="1.0" standalone="no"?>
<!DOCTYPE svg PUBLIC "-//W3C//DTD SVG 20010904//EN"
 "http://www.w3.org/TR/2001/REC-SVG-20010904/DTD/svg10.dtd">
<svg version="1.0" xmlns="http://www.w3.org/2000/svg"
 width="700.000000pt" height="700.000000pt" viewBox="0 0 700.000000 700.000000"
 preserveAspectRatio="xMidYMid meet">
<metadata>
Created by potrace 1.11, written by Peter Selinger 2001-2013
</metadata>
<g transform="translate(0.000000,700.000000) scale(0.100000,-0.100000)"
fill="#000000" stroke="none">
<path d="M740 6401 c0 -3 174 -177 387 -388 l386 -383 531 -1 c292 0 653 -1
801 -2 l270 -2 -1 -240 c-3 -482 -3 -595 -1 -1420 l2 -840 421 -3 421 -2 2
162 c3 214 3 328 1 1408 -1 503 -1 920 -1 925 1 6 83 9 228 8 126 -1 452 -2
725 -3 l497 -1 378 381 c208 210 381 387 385 394 5 9 -600 12 -2713 12 -1495
0 -2719 -3 -2719 -5z"/>
<path d="M1620 3110 l0 -2025 402 2 c222 1 411 2 421 2 16 1 17 23 17 324 l0
323 1050 0 c1050 0 1050 0 1051 -21 0 -11 1 -158 2 -327 l0 -308 421 0 421 0
-2 2017 c0 1110 -2 2021 -2 2024 -1 3 -189 5 -418 5 l-418 -1 -1 -1275 0
-1274 -1050 -1 -1049 0 -5 1279 -5 1280 -417 0 -418 1 0 -2025z"/>
</g>
</svg>
